PathFileType	4	(X/Y/Z)	C:\Users\WrightLab\Desktop\Jo\P4V127.trc
DataRate	CameraRate	NumFrames	NumMarkers	Units	OrigDataRate	OrigDataStartFrame	OrigNumFrames
100.00	100.00	       7	19	mm	100.00	402	       642
Frame#	Time	Headset_Front			Headset_Back			Headset_Left			Headset_Right			Left_Shoulder			Right_Shoulder			Sternum			C7			Left Elbow			Right Elbow			Left Wrist			Right Wrist			Left ASIS			Right ASIS			S2			Left Knee			Right Knee			Left Ankle			Right Ankle			
		X1	Y1	Z1	X2	Y2	Z2	X3	Y3	Z3	X4	Y4	Z4	X5	Y5	Z5	X6	Y6	Z6	X7	Y7	Z7	X8	Y8	Z8	X9	Y9	Z9	X10	Y10	Z10	X11	Y11	Z11	X12	Y12	Z12	X13	Y13	Z13	X14	Y14	Z14	X15	Y15	Z15	X16	Y16	Z16	X17	Y17	Z17	X18	Y18	Z18	X19	Y19	Z19	

402	4.010	51.30704	1714.51294	864.69067	172.76169	1694.36316	953.20380							293.01813	1544.97693	693.60388	0.83141	1547.67493	774.08600	187.16675	1480.10303	834.70123				485.55103	1223.98389	688.77246	-145.20140	1200.97583	798.78717	548.32849	978.93311	874.31708	-104.14658	939.79193	953.68158	310.89871	1052.21716	725.85193	22.02864	1049.05115	891.67981	91.00701	1069.71118	638.80341	294.18475	567.82196	657.23718	72.85643	619.37219	1033.77356	203.06877	75.70535	558.21954	170.44814	110.75789	960.27789	
403	4.020	53.08953	1713.63232	872.41077	173.58151	1693.35583	962.00708							295.82089	1543.94995	702.84344	4.04644	1545.92688	780.97467	189.04872	1478.59351	843.81165				490.34262	1224.82544	702.93658	-143.07423	1199.35925	803.66486	553.56000	981.16235	890.05573	-104.42233	937.43890	958.12500	314.61093	1051.27820	736.26837	23.95605	1047.22375	898.91760	96.46726	1069.45703	647.16614	295.28375	567.59351	661.90576	75.30358	616.64648	1038.88269	203.06520	75.96240	558.55347	179.51663	105.70484	987.30518	
404	4.030	54.38741	1712.88867	880.23065	174.33521	1692.18005	970.78137							299.39310	1543.09204	713.22327	6.12440	1544.16736	788.03503	191.01178	1477.27393	852.48804				495.02814	1225.23755	716.26025	-141.39777	1197.53003	808.64539	558.16956	983.46869	905.50391	-104.46874	934.66449	963.26276	318.10724	1049.76526	746.58978	25.48458	1045.77441	906.31024	101.08231	1068.85962	655.22778	296.72598	567.35345	666.82129	77.47138	613.19702	1044.00342	203.01889	76.38396	558.63098	184.53995	102.89178	1013.39270	
405	4.040	55.60238	1711.68384	888.08044	174.51976	1691.26294	979.52454							301.99368	1542.10718	723.82764	7.13308	1543.08118	795.21082	192.44096	1476.19617	861.52338				499.80774	1225.09790	728.98230	-139.01758	1195.38965	813.89087	562.48962	985.38678	921.10626	-105.09804	932.50098	967.88580	321.50409	1048.73010	756.53552	27.72346	1043.53027	913.65771	105.75925	1067.75659	664.24023	298.49963	567.07123	671.71124	78.88326	610.57660	1049.06848	203.02870	76.51069	559.26404	189.79454	99.64690	1039.82666	
406	4.050	56.70560	1710.84058	895.76538	174.84500	1690.03357	988.25439							304.52911	1541.07471	734.18707	8.82854	1541.34448	802.34705	193.46243	1474.91211	871.31311				503.66092	1224.88000	741.74469	-137.06792	1193.57043	819.10895	566.18896	987.12054	935.98926	-105.15839	929.78113	972.42035	324.87750	1047.18054	767.21783	29.83802	1041.80933	921.26044	109.88184	1067.07458	672.48065	300.12277	566.65247	677.25714	81.22480	607.17834	1054.09631	202.85175	76.69799	559.69678	194.56108	97.46004	1064.30212	
407	4.060	58.05131	1709.29041	903.57330	175.98973	1688.63354	996.91205							307.05295	1539.98560	745.68286	11.24801	1539.03638	809.50226	194.63991	1473.48340	880.55011				507.13153	1224.74561	754.98450	-135.35593	1191.56323	824.22882	569.91815	988.20013	950.94141	-105.04103	927.18256	977.50116	328.18631	1045.95251	777.43005	31.61089	1039.92700	929.69830	113.99167	1065.87634	681.15771	302.10779	567.00653	682.76434	83.14642	603.00629	1058.41272	202.76216	77.26862	560.01764	198.09169	95.94656	1088.11890	
408	4.070	59.02476	1707.75977	911.53723	175.53441	1687.72888	1005.93768							309.73621	1538.59619	755.39386	12.88204	1537.08020	817.23792	195.94391	1472.13904	889.76361				510.57886	1224.49536	767.49060	-133.21886	1189.51086	829.65918	572.50885	989.60846	965.87677	-105.86177	924.86249	983.01660	330.75510	1044.43726	788.90973	34.27575	1037.92798	937.97748	118.10049	1065.03406	689.87006	304.43002	566.56622	688.88892	84.94753	598.92566	1063.41492	202.70760	78.23073	560.87482	201.33348	94.96588	1111.23608	
